<svg xmlns="http://www.w3.org/2000/svg" viewBox="0 0 1024 1024" width="1024" height="1024">
  <!-- 抖音图标：黑色圆角方形 + 音符logo（白主体 + 青色/品红描边偏移）-->
  <rect width="1024" height="1024" rx="240" ry="240" fill="#000000"/>

  <!-- 品红偏移层 -->
  <g transform="translate(-12,0)" fill="#FF0050">
    <path d="M620 220c30 70 90 120 170 130v120c-70 0-130-22-180-58v250c0 130-90 230-210 230s-210-90-210-220 100-220 230-220c20 0 40 3 60 8v130c-20-7-40-11-60-11-60 0-110 45-110 100s50 100 110 100 110-40 110-100V220h190z"/>
  </g>

  <!-- 青色偏移层 -->
  <g transform="translate(12,0)" fill="#00F2EA">
    <path d="M620 220c30 70 90 120 170 130v120c-70 0-130-22-180-58v250c0 130-90 230-210 230s-210-90-210-220 100-220 230-220c20 0 40 3 60 8v130c-20-7-40-11-60-11-60 0-110 45-110 100s50 100 110 100 110-40 110-100V220h190z"/>
  </g>

  <!-- 白色主体 -->
  <path d="M620 220c30 70 90 120 170 130v120c-70 0-130-22-180-58v250c0 130-90 230-210 230s-210-90-210-220 100-220 230-220c20 0 40 3 60 8v130c-20-7-40-11-60-11-60 0-110 45-110 100s50 100 110 100 110-40 110-100V220h190z" fill="#FFFFFF"/>
</svg>
